<svg xmlns="http://www.w3.org/2000/svg"  viewBox="0 0 100 100" width="200px" height="200px"><path fill="#c7ede6" d="M87.215,56.658C88.35,54.504,89,52.053,89,49.448c0-6.621-4.159-12.257-10.001-14.478	c0-0.008,0.001-0.015,0.001-0.022c0-11.598-9.402-21-21-21c-9.784,0-17.981,6.701-20.313,15.757	c-1.476-0.485-3.048-0.757-4.687-0.757c-7.692,0-14.023,5.793-14.89,13.252C12.906,43.301,9,47.917,9,53.448	c0,6.351,5.149,11.5,11.5,11.5c0.177,0,0.352-0.012,0.526-0.022C21.022,65.102,21,65.272,21,65.448c0,11.322,9.178,20.5,20.5,20.5	c6.437,0,12.175-2.972,15.934-7.614c2.178,2.225,5.207,3.614,8.566,3.614c4.65,0,8.674-2.65,10.666-6.518	c1.052,0.334,2.171,0.518,3.334,0.518c6.075,0,11-4.925,11-11C91,61.637,89.53,58.675,87.215,56.658z"/><path fill="#fdfcef" d="M34.875,73.5c0,0,3.64,0,6.125,0s4.5-2.015,4.5-4.5c0-2.333-1.782-4.229-4.055-4.455 C41.467,64.364,41.5,64.187,41.5,64c0-2.485-2.015-4.5-4.5-4.5c-1.438,0-2.703,0.686-3.527,1.736 C33.333,58.6,31.171,56.5,28.5,56.5c-2.761,0-5,2.239-5,5c0,0.446,0.077,0.87,0.187,1.282C23.045,62.005,22.086,61.5,21,61.5 c-1.781,0-3.234,1.335-3.455,3.055C17.364,64.533,17.187,64.5,17,64.5c-2.485,0-4.5,2.015-4.5,4.5s2.015,4.5,4.5,4.5s9.5,0,9.5,0 h5.375V74h3V73.5z"/><path fill="#472b29" d="M28.5,56c-3.033,0-5.5,2.467-5.5,5.5c0,0.016,0,0.031,0,0.047C22.398,61.192,21.71,61,21,61 c-1.831,0-3.411,1.261-3.858,3.005C17.095,64.002,17.048,64,17,64c-2.757,0-5,2.243-5,5s2.243,5,5,5h14.875 c0.276,0,0.5-0.224,0.5-0.5s-0.224-0.5-0.5-0.5H17c-2.206,0-4-1.794-4-4s1.794-4,4-4c0.117,0,0.23,0.017,0.343,0.032l0.141,0.019 c0.021,0.003,0.041,0.004,0.062,0.004c0.246,0,0.462-0.185,0.495-0.437C18.232,63.125,19.504,62,21,62 c0.885,0,1.723,0.401,2.301,1.1c0.098,0.118,0.241,0.182,0.386,0.182c0.078,0,0.156-0.018,0.228-0.056 c0.209-0.107,0.314-0.346,0.254-0.573C24.054,62.218,24,61.852,24,61.5c0-2.481,2.019-4.5,4.5-4.5c2.381,0,4.347,1.872,4.474,4.263 c0.011,0.208,0.15,0.387,0.349,0.45c0.05,0.016,0.101,0.024,0.152,0.024c0.15,0,0.296-0.069,0.392-0.192 C34.638,60.563,35.779,60,37,60c2.206,0,4,1.794,4,4c0,0.117-0.017,0.23-0.032,0.343l-0.019,0.141 c-0.016,0.134,0.022,0.268,0.106,0.373c0.084,0.105,0.207,0.172,0.34,0.185C43.451,65.247,45,66.949,45,69c0,2.206-1.794,4-4,4 h-6.125c-0.276,0-0.5,0.224-0.5,0.5s0.224,0.5,0.5,0.5H41c2.757,0,5-2.243,5-5c0-2.397-1.689-4.413-4.003-4.877 C41.999,64.082,42,64.041,42,64c0-2.757-2.243-5-5-5c-1.176,0-2.293,0.416-3.183,1.164C33.219,57.76,31.055,56,28.5,56L28.5,56z"/><path fill="#472b29" d="M27,63c-1.403,0-2.609,0.999-2.913,2.341C23.72,65.119,23.301,65,22.875,65 c-1.202,0-2.198,0.897-2.353,2.068C20.319,67.022,20.126,67,19.937,67c-1.529,0-2.811,1.2-2.918,2.732 C17.01,69.87,17.114,69.99,17.251,70c0.006,0,0.012,0,0.018,0c0.13,0,0.24-0.101,0.249-0.232c0.089-1.271,1.151-2.268,2.419-2.268 c0.229,0,0.47,0.041,0.738,0.127c0.022,0.007,0.045,0.01,0.067,0.01c0.055,0,0.11-0.02,0.156-0.054 C20.962,67.537,21,67.455,21,67.375c0-1.034,0.841-1.875,1.875-1.875c0.447,0,0.885,0.168,1.231,0.473 c0.047,0.041,0.106,0.063,0.165,0.063c0.032,0,0.063-0.006,0.093-0.019c0.088-0.035,0.148-0.117,0.155-0.212 C24.623,64.512,25.712,63.5,27,63.5c0.208,0,0.425,0.034,0.682,0.107c0.023,0.007,0.047,0.01,0.07,0.01 c0.109,0,0.207-0.073,0.239-0.182c0.038-0.133-0.039-0.271-0.172-0.309C27.517,63.04,27.256,63,27,63L27,63z"/><path fill="#472b29" d="M40.883,64.5c-1.326,0-2.508,0.897-2.874,2.182c-0.038,0.133,0.039,0.271,0.172,0.309 C38.205,66.997,38.228,67,38.25,67c0.109,0,0.209-0.072,0.24-0.182C38.795,65.748,39.779,65,40.883,65 c0.117,0,0.23,0.014,0.342,0.029c0.012,0.002,0.023,0.003,0.035,0.003c0.121,0,0.229-0.092,0.246-0.217 c0.019-0.137-0.077-0.263-0.214-0.281C41.158,64.516,41.022,64.5,40.883,64.5L40.883,64.5z"/><path fill="#fff" d="M15.405,51H5.5C5.224,51,5,50.776,5,50.5S5.224,50,5.5,50h9.905c0.276,0,0.5,0.224,0.5,0.5 S15.682,51,15.405,51z"/><path fill="#fff" d="M18.5,51h-1c-0.276,0-0.5-0.224-0.5-0.5s0.224-0.5,0.5-0.5h1c0.276,0,0.5,0.224,0.5,0.5 S18.777,51,18.5,51z"/><path fill="#fff" d="M23.491,53H14.5c-0.276,0-0.5-0.224-0.5-0.5s0.224-0.5,0.5-0.5h8.991c0.276,0,0.5,0.224,0.5,0.5 S23.767,53,23.491,53z"/><path fill="#fff" d="M12.5,53h-1c-0.276,0-0.5-0.224-0.5-0.5s0.224-0.5,0.5-0.5h1c0.276,0,0.5,0.224,0.5,0.5 S12.777,53,12.5,53z"/><path fill="#fff" d="M9.5,53h-2C7.224,53,7,52.776,7,52.5S7.224,52,7.5,52h2c0.276,0,0.5,0.224,0.5,0.5S9.777,53,9.5,53z"/><path fill="#fff" d="M15.5,55h-2c-0.276,0-0.5-0.224-0.5-0.5s0.224-0.5,0.5-0.5h2c0.276,0,0.5,0.224,0.5,0.5 S15.776,55,15.5,55z"/><path fill="#fff" d="M18.5,46c-0.177,0-0.823,0-1,0c-0.276,0-0.5,0.224-0.5,0.5c0,0.276,0.224,0.5,0.5,0.5 c0.177,0,0.823,0,1,0c0.276,0,0.5-0.224,0.5-0.5C19,46.224,18.776,46,18.5,46z"/><path fill="#fff" d="M18.5,48c-0.177,0-4.823,0-5,0c-0.276,0-0.5,0.224-0.5,0.5c0,0.276,0.224,0.5,0.5,0.5 c0.177,0,4.823,0,5,0c0.276,0,0.5-0.224,0.5-0.5C19,48.224,18.776,48,18.5,48z"/><path fill="#fff" d="M23.5,50c-0.177,0-2.823,0-3,0c-0.276,0-0.5,0.224-0.5,0.5c0,0.276,0.224,0.5,0.5,0.5 c0.177,0,2.823,0,3,0c0.276,0,0.5-0.224,0.5-0.5C24,50.224,23.776,50,23.5,50z"/><g><path fill="#fff" d="M81.5,48h-10c-0.276,0-0.5-0.224-0.5-0.5s0.224-0.5,0.5-0.5h10c0.276,0,0.5,0.224,0.5,0.5 S81.776,48,81.5,48z"/><path fill="#fff" d="M85.5,48h-2c-0.276,0-0.5-0.224-0.5-0.5s0.224-0.5,0.5-0.5h2c0.276,0,0.5,0.224,0.5,0.5 S85.776,48,85.5,48z"/><path fill="#fff" d="M90.5,50h-10c-0.276,0-0.5-0.224-0.5-0.5s0.224-0.5,0.5-0.5h10c0.276,0,0.5,0.224,0.5,0.5 S90.777,50,90.5,50z"/><path fill="#fff" d="M78.5,50h-1c-0.276,0-0.5-0.224-0.5-0.5s0.224-0.5,0.5-0.5h1c0.276,0,0.5,0.224,0.5,0.5 S78.776,50,78.5,50z"/><path fill="#fff" d="M75.375,50H73.5c-0.276,0-0.5-0.224-0.5-0.5s0.224-0.5,0.5-0.5h1.875c0.276,0,0.5,0.224,0.5,0.5 S75.651,50,75.375,50z"/><path fill="#fff" d="M84.5,46h-5c-0.276,0-0.5-0.224-0.5-0.5s0.224-0.5,0.5-0.5h5c0.276,0,0.5,0.224,0.5,0.5 S84.777,46,84.5,46z"/><path fill="#fff" d="M81.5,52h-2c-0.276,0-0.5-0.224-0.5-0.5s0.224-0.5,0.5-0.5h2c0.276,0,0.5,0.224,0.5,0.5 S81.776,52,81.5,52z"/></g><g><path fill="#5a5c70" d="M74.3,75.3H25.7c1.19-4.5,2.22-9.2,6.63-14.26c0.4-0.45,0.93-0.76,1.51-0.92l8.24-2.15 l0.626-0.156h14.589l0.626,0.156l8.24,2.15c0.58,0.16,1.11,0.47,1.51,0.92C72.08,66.1,73.11,70.8,74.3,75.3z"/><polygon fill="#7e96af" points="45.6,75.3 41.8,75.3 36.49,65.31 40.33,63.33 36.5,61.5 38.48,58.91 42.08,57.97"/><polygon fill="#7e96af" points="63.51,65.31 58.2,75.3 54.4,75.3 57.92,57.97 61.53,58.91 63.5,61.5 59.67,63.33"/><polygon fill="#fdfcee" points="57.92,57.97 54.4,75.3 45.6,75.3 42.08,57.97 42.706,57.814 57.294,57.814"/><path fill="#b6b6b7" d="M52.175,60.081L50,63.624l-2.175-3.543c-0.202-0.038-0.403-0.078-0.601-0.126L44.125,67.5 l2.625,1.125l1.25-3.25l2,3.249l2-3.249l1.25,3.25l2.625-1.125l-3.099-7.545C52.578,60.003,52.377,60.043,52.175,60.081z"/><g><path fill="#472b29" d="M41.8,75.8c-0.179,0-0.352-0.096-0.441-0.266l-5.305-9.993c-0.062-0.118-0.076-0.256-0.036-0.384 s0.13-0.234,0.249-0.295l2.941-1.515l-2.924-1.396c-0.136-0.065-0.234-0.188-0.271-0.334c-0.035-0.146-0.003-0.301,0.089-0.42 l1.973-2.588c0.168-0.221,0.483-0.261,0.7-0.094c0.22,0.167,0.263,0.481,0.095,0.701l-1.6,2.099l3.278,1.565 c0.171,0.082,0.281,0.254,0.284,0.444s-0.103,0.365-0.271,0.452l-3.388,1.745l5.067,9.546c0.13,0.244,0.037,0.546-0.207,0.676 C41.96,75.781,41.879,75.8,41.8,75.8z"/><path fill="#472b29" d="M53.25,69c-0.05,0-0.1-0.01-0.146-0.029c-0.094-0.04-0.168-0.116-0.204-0.211l-0.979-2.543 l-1.603,2.604c-0.137,0.222-0.502,0.222-0.639,0l-1.603-2.604L47.1,68.76c-0.036,0.095-0.11,0.171-0.204,0.211 c-0.092,0.039-0.199,0.039-0.293-0.001l-2.625-1.125c-0.188-0.081-0.277-0.298-0.199-0.487l3.099-7.545 c0.07-0.171,0.255-0.265,0.435-0.222c0.192,0.046,0.387,0.085,0.583,0.122c0.104,0.02,0.195,0.083,0.25,0.172L50,62.908 l1.855-3.023c0.055-0.09,0.146-0.153,0.25-0.172c0.196-0.037,0.391-0.076,0.583-0.122c0.18-0.044,0.364,0.051,0.435,0.222 l3.099,7.545c0.078,0.189-0.011,0.407-0.199,0.487l-2.625,1.125C53.351,68.99,53.3,69,53.25,69z M52,65 c0.012,0,0.023,0,0.034,0.001c0.143,0.013,0.265,0.106,0.315,0.239l1.11,2.887l1.928-0.826L52.55,60.39 c-0.048,0.01-0.095,0.019-0.142,0.028l-2.089,3.403c-0.137,0.222-0.502,0.222-0.639,0l-2.089-3.403 c-0.047-0.009-0.094-0.019-0.142-0.028l-2.838,6.911l1.928,0.826l1.11-2.887c0.051-0.133,0.173-0.226,0.315-0.239 c0.128-0.012,0.279,0.055,0.354,0.177L50,67.909l1.681-2.731C51.749,65.067,51.87,65,52,65z"/><path fill="#472b29" d="M74.3,76L74.3,76L50,75.999L25.7,76c-0.217,0-0.422-0.101-0.555-0.273s-0.178-0.396-0.122-0.606 l0.22-0.835c1.139-4.342,2.316-8.832,6.562-13.7c0.478-0.548,1.117-0.943,1.849-1.143l8.876-2.306 c0.058-0.015,0.116-0.022,0.176-0.022h14.588c0.06,0,0.118,0.008,0.176,0.022l8.868,2.304c0.739,0.202,1.379,0.597,1.856,1.145 c4.246,4.869,5.424,9.358,6.562,13.7l0.22,0.835c0.056,0.21,0.011,0.434-0.122,0.606S74.518,76,74.3,76z M50,74.598L73.392,74.6 c-1.095-4.173-2.235-8.488-6.252-13.095l0,0c-0.296-0.339-0.697-0.585-1.161-0.712l-8.774-2.279H42.796l-8.782,2.281 c-0.456,0.124-0.857,0.37-1.153,0.709c-4.017,4.606-5.157,8.922-6.252,13.095L50,74.598z"/><path fill="#472b29" d="M58.2,75.8c-0.079,0-0.16-0.019-0.234-0.059c-0.244-0.129-0.337-0.432-0.207-0.676l5.067-9.546 l-3.388-1.745c-0.169-0.087-0.274-0.262-0.271-0.452s0.113-0.362,0.284-0.444l3.278-1.565l-1.6-2.099 c-0.168-0.22-0.125-0.534,0.095-0.701c0.217-0.167,0.532-0.126,0.7,0.094l1.973,2.588c0.092,0.12,0.124,0.274,0.089,0.42 c-0.036,0.146-0.135,0.269-0.271,0.334l-2.924,1.396l2.941,1.515c0.119,0.061,0.209,0.167,0.249,0.295s0.026,0.266-0.036,0.384 l-5.305,9.993C58.552,75.704,58.379,75.8,58.2,75.8z"/><path fill="#472b29" d="M65.625,75.375c-0.207,0-0.375-0.168-0.375-0.375c0-8.656,1.699-14.352,1.717-14.409 c0.061-0.198,0.271-0.309,0.467-0.25c0.198,0.06,0.311,0.27,0.25,0.468C67.667,60.865,66,66.464,66,75 C66,75.207,65.832,75.375,65.625,75.375z"/><path fill="#472b29" d="M33.691,66c-0.183,0-0.343-0.133-0.371-0.319c-0.066-0.443-0.135-0.853-0.203-1.241 c-0.036-0.204,0.1-0.398,0.304-0.435c0.209-0.033,0.398,0.101,0.435,0.304c0.07,0.394,0.139,0.809,0.207,1.259 c0.03,0.205-0.11,0.396-0.315,0.427C33.729,65.999,33.71,66,33.691,66z"/><path fill="#472b29" d="M34.375,75.375C34.168,75.375,34,75.207,34,75c0-2.205-0.113-4.421-0.337-6.586 c-0.021-0.206,0.129-0.39,0.335-0.412c0.205-0.025,0.391,0.129,0.411,0.334C34.636,70.527,34.75,72.77,34.75,75 C34.75,75.207,34.582,75.375,34.375,75.375z"/><path fill="#472b29" d="M54.401,75.8c-0.033,0-0.067-0.003-0.101-0.01c-0.271-0.055-0.445-0.319-0.391-0.589l3.524-17.329 c0.056-0.271,0.323-0.445,0.59-0.39c0.271,0.055,0.445,0.319,0.391,0.589l-3.524,17.329C54.842,75.636,54.634,75.8,54.401,75.8z"/></g><g><path fill="#fddbbc" d="M62.573,41.707C61.61,41.7,61.6,41.7,61.6,41.7s0.9-9.664-11.6-9.664S38.4,41.7,38.4,41.7 s-0.01,0-0.973,0.007c-1.512,0.04-2.727,1.271-2.727,2.793c0,1.479,1.147,2.69,2.6,2.793c0.176,7.067,5.8,12.99,12.7,13.005 c6.9-0.016,12.524-5.939,12.7-13.005c1.453-0.103,2.6-1.314,2.6-2.793C65.3,42.979,64.085,41.747,62.573,41.707z"/><path fill="#fdfcee" d="M58.494,42.82c-0.181-0.367-0.441-0.741-0.729-1.026c-0.294-0.288-0.619-0.52-0.986-0.645 c-0.363-0.123-0.733-0.239-1.16-0.283c-0.418-0.043-0.881-0.005-1.24,0.099l-0.052,0.015c-0.131,0.038-0.269-0.037-0.307-0.169 c-0.031-0.107,0.013-0.217,0.101-0.276c0.478-0.317,0.964-0.419,1.474-0.496c0.503-0.052,1.078-0.055,1.575,0.199 c0.494,0.241,0.922,0.601,1.226,1.029c0.312,0.429,0.507,0.893,0.61,1.413c0.029,0.143-0.065,0.283-0.208,0.311 c-0.12,0.024-0.237-0.038-0.289-0.142L58.494,42.82z"/><path fill="#fdfcee" d="M40.994,42.68c0.103-0.52,0.298-0.984,0.61-1.413c0.304-0.428,0.732-0.788,1.226-1.029 c0.497-0.253,1.072-0.251,1.575-0.199c0.509,0.076,0.996,0.179,1.474,0.496c0.114,0.076,0.145,0.229,0.07,0.343 c-0.061,0.092-0.174,0.13-0.275,0.101l-0.052-0.015c-0.36-0.105-0.822-0.142-1.24-0.099c-0.427,0.044-0.798,0.16-1.16,0.283 c-0.366,0.124-0.692,0.357-0.986,0.645c-0.288,0.285-0.547,0.659-0.729,1.026l-0.015,0.03c-0.065,0.131-0.224,0.185-0.355,0.12 C41.027,42.915,40.971,42.795,40.994,42.68z"/><path fill="#fdfcee" d="M56.125,51.375c-1.52,0-2.072-0.204-3.276-1.327c-0.713-0.664-1.442-0.78-1.559-0.795 C51.03,49.698,50.553,50,50,50s-1.03-0.302-1.29-0.747c-0.117,0.015-0.846,0.131-1.559,0.795 c-1.203,1.122-1.756,1.327-3.276,1.327c-2.28,0-3.5-1.997-3.5-1.997c0,3.585,3.086,5.247,6.125,5.247c2.625,0,3.5-1.25,3.5-1.25 s0.875,1.25,3.5,1.25c3.039,0,6.125-1.662,6.125-5.247C59.625,49.378,58.405,51.375,56.125,51.375z"/><g><path fill="#472b29" d="M50.002,60.999c-7.019-0.016-12.904-5.845-13.376-13.109C35.112,47.498,34,46.114,34,44.5 c0-1.908,1.497-3.442,3.408-3.492l0.281-0.002c0.038-1.278,0.384-3.928,2.413-6.155c2.125-2.333,5.455-3.516,9.897-3.516 s7.772,1.183,9.897,3.516c2.029,2.227,2.375,4.876,2.413,6.154l0.268,0.002c0.005,0,0.009,0,0.014,0 C64.503,41.058,66,42.592,66,44.5c0,1.614-1.112,2.998-2.626,3.39C62.902,55.154,57.017,60.982,50.002,60.999z M50,32.736 c-4.022,0-7,1.024-8.85,3.044c-2.316,2.529-2.056,5.824-2.053,5.857c0.017,0.195-0.048,0.389-0.18,0.533 c-0.132,0.145-0.318,0.229-0.514,0.23l-0.973,0.007c-1.133,0.03-2.031,0.949-2.031,2.092c0,1.098,0.855,2.018,1.948,2.095 c0.36,0.025,0.642,0.32,0.651,0.681c0.168,6.78,5.553,12.309,12.002,12.323c6.445-0.014,11.83-5.542,11.998-12.323 c0.01-0.36,0.291-0.655,0.651-0.681c1.093-0.077,1.948-0.997,1.948-2.095c0-1.142-0.895-2.06-2.039-2.093L61.596,42.4 c-0.195-0.001-0.382-0.085-0.514-0.23c-0.132-0.145-0.196-0.338-0.18-0.533c0.003-0.033,0.264-3.329-2.053-5.857 C57,33.76,54.022,32.736,50,32.736z"/><path fill="#472b29" d="M52.18,54.286c-0.049-0.104-0.142-0.181-0.253-0.208c-1.168-0.281-1.599-0.887-1.614-0.91 c-0.07-0.107-0.19-0.148-0.312-0.149v0.001c-0.121,0-0.24,0.041-0.311,0.144c-0.018,0.026-0.448,0.632-1.616,0.913 c-0.111,0.027-0.204,0.104-0.253,0.208c-0.048,0.104-0.046,0.225,0.007,0.327c0.284,0.56,1.171,1.387,2.17,1.387 c0.001,0,0.002-0.001,0.003-0.001V56c0.001,0,0.001,0,0.003,0c0.999,0,1.886-0.827,2.17-1.387 C52.226,54.511,52.228,54.39,52.18,54.286z"/><path fill="#472b29" d="M46.455,56.106c0.432,0.344,1.053,0.589,1.653,0.709c0.613,0.122,1.244,0.18,1.892,0.171 c0.648,0.009,1.279-0.048,1.892-0.169c0.6-0.12,1.222-0.363,1.657-0.708l0.05-0.04c0.104-0.083,0.256-0.065,0.338,0.039 c0.066,0.083,0.068,0.197,0.013,0.282c-0.453,0.692-1.13,1.032-1.821,1.275c-0.694,0.24-1.424,0.318-2.129,0.321 c-0.706-0.002-1.436-0.079-2.13-0.319c-0.692-0.242-1.369-0.581-1.825-1.274c-0.075-0.114-0.043-0.266,0.07-0.341 c0.091-0.06,0.208-0.052,0.289,0.013L46.455,56.106z"/><path fill="#472b29" d="M50,50.5c-1.103,0-2-0.897-2-2c0-0.276,0.224-0.5,0.5-0.5s0.5,0.224,0.5,0.5c0,0.551,0.448,1,1,1 s1-0.449,1-1c0-0.276,0.224-0.5,0.5-0.5s0.5,0.224,0.5,0.5C52,49.603,51.103,50.5,50,50.5z"/><path fill="#472b29" d="M44.5,42c-0.684,0-1.255,0.614-1.435,1.449C43.181,43.185,43.443,43,43.75,43 c0.414,0,0.75,0.336,0.75,0.75c0,0.414-0.336,0.75-0.75,0.75c-0.39,0-0.7-0.301-0.736-0.682C43.01,43.879,43,43.938,43,44 c0,1.105,0.672,2,1.5,2s1.5-0.895,1.5-2C46,42.895,45.328,42,44.5,42z"/><path fill="#472b29" d="M55.5,42c-0.684,0-1.255,0.614-1.435,1.449C54.181,43.185,54.443,43,54.75,43 c0.414,0,0.75,0.336,0.75,0.75c0,0.414-0.336,0.75-0.75,0.75c-0.39,0-0.7-0.301-0.736-0.682C54.01,43.879,54,43.938,54,44 c0,1.105,0.672,2,1.5,2s1.5-0.895,1.5-2C57,42.895,56.328,42,55.5,42z"/><path fill="#472b29" d="M53.5,55c-1.96,0-3.025-0.668-3.5-1.085C49.525,54.332,48.46,55,46.5,55 c-3.131,0-6.5-1.759-6.5-5.622c0-0.167,0.111-0.314,0.272-0.36c0.162-0.047,0.334,0.021,0.422,0.164 C40.706,49.2,41.842,51,43.875,51c1.45,0,1.902-0.183,3.02-1.226c0.788-0.734,1.61-0.873,1.768-0.893 c0.146-0.018,0.296,0.053,0.372,0.183c0.41,0.702,1.521,0.702,1.932,0c0.076-0.13,0.225-0.201,0.372-0.183 c0.157,0.021,0.979,0.159,1.768,0.893C54.223,50.817,54.675,51,56.125,51c2.033,0,3.169-1.8,3.181-1.818 c0.088-0.143,0.26-0.211,0.422-0.164C59.889,49.063,60,49.21,60,49.378C60,53.241,56.631,55,53.5,55z M49.999,53.001 c0.001,0,0.003,0,0.004,0c0.121,0.001,0.235,0.06,0.305,0.159c0.03,0.041,0.825,1.09,3.192,1.09c2.512,0,5.043-1.16,5.626-3.719 c-0.639,0.584-1.644,1.219-3.001,1.219c-1.646,0-2.273-0.253-3.531-1.427c-0.438-0.408-0.881-0.581-1.138-0.652 c-0.705,0.88-2.207,0.88-2.912,0c-0.257,0.071-0.7,0.244-1.138,0.652c-1.258,1.174-1.886,1.427-3.531,1.427 c-1.357,0-2.362-0.635-3.001-1.219c0.583,2.559,3.114,3.719,5.626,3.719c2.367,0,3.162-1.049,3.195-1.093 C49.766,53.06,49.88,53.001,49.999,53.001z"/></g></g><g><path fill="#5a5c70" d="M61.3,24.44c0,0.21-1.53,6.56-1.53,6.56l-0.17,0.69L59.53,32c-3.19,0.42-6.36,0.69-9.53,0.7 c-3.17-0.01-6.34-0.28-9.53-0.7l-0.07-0.31L40.23,31c0,0-1.53-6.35-1.53-6.56c0-2.07,5.06-3.74,11.3-3.74S61.3,22.37,61.3,24.44z"/><path fill="#7e96af" d="M50,36.299c3.68,0.083,7.389,0.619,9.162,1.893c0.955,0.686,1.828,1.918,2.438,3.508 c0,0,0,0,1.076,0.008C65.3,41.7,67.3,39.266,67.3,36.73v-0.013c0-3.061-2.854-5.435-6.022-4.955 c-3.774,0.572-7.533,0.926-11.278,0.936c-3.745-0.01-7.505-0.365-11.278-0.936c-3.167-0.48-6.022,1.894-6.022,4.955v0.013 c0,2.536,2,4.97,4.624,4.978C38.4,41.7,38.4,41.7,38.4,41.7c0.611-1.59,1.484-2.822,2.438-3.508 C42.611,36.919,46.32,36.383,50,36.299z"/><path fill="#5b7729" d="M59.6,31.69L59.53,32c-3.19,0.42-6.36,0.69-9.53,0.7c-3.17-0.01-6.34-0.28-9.53-0.7l-0.07-0.31 C41.58,30.08,45.44,29,50,29S58.42,30.08,59.6,31.69z"/><g><path fill="#472b29" d="M59.528,32.701c-0.055,0-0.11-0.006-0.166-0.02c-0.375-0.091-0.606-0.469-0.516-0.845l0.242-1.001 c0.559-2.319,1.465-6.127,1.516-6.472C60.6,23.198,56.471,21.398,50,21.398s-10.6,1.8-10.6,3.039 c0.046,0.271,0.952,4.079,1.511,6.398l0.242,1c0.091,0.375-0.141,0.754-0.516,0.845c-0.378,0.09-0.754-0.14-0.846-0.516 l-0.242-1.001C38,24.731,38,24.54,38,24.438c0-2.915,6.037-4.439,12-4.439s12,1.525,12,4.439c0,0.103,0,0.294-1.55,6.727 l-0.242,1.001C60.13,32.486,59.844,32.701,59.528,32.701z"/><path fill="#472b29" d="M62.679,42.408L61.595,42.4c-0.288-0.002-0.546-0.181-0.648-0.449 c-0.553-1.438-1.331-2.571-2.192-3.19C57.327,37.737,54.138,37.095,50,37c-4.138,0.095-7.327,0.737-8.754,1.761 c-0.861,0.619-1.64,1.752-2.192,3.19c-0.103,0.269-0.36,0.447-0.648,0.449l-1.077,0.008C34.437,42.399,32,39.799,32,36.73 c0-1.641,0.725-3.196,1.987-4.282c1.326-1.14,3.094-1.644,4.839-1.378c4.062,0.615,7.717,0.919,11.176,0.928 c3.455-0.009,7.11-0.313,11.172-0.928c1.745-0.267,3.513,0.238,4.839,1.378C67.275,33.534,68,35.089,68,36.716 C68,39.799,65.563,42.399,62.679,42.408z M38.4,41.7h0.01H38.4z M62.071,41.003l0.61,0.004c2.307-0.007,3.918-2.26,3.918-4.278 c0-1.232-0.546-2.401-1.499-3.221c-1.018-0.875-2.371-1.258-3.718-1.056c-4.13,0.626-7.853,0.935-11.381,0.945 c-3.532-0.01-7.255-0.319-11.385-0.945c-1.341-0.2-2.699,0.182-3.718,1.056c-0.953,0.82-1.499,1.988-1.499,3.207 c0,2.032,1.611,4.285,3.925,4.292l0.604-0.004c0.639-1.483,1.517-2.672,2.501-3.379c2.262-1.624,6.957-1.966,9.555-2.024 c0.01,0,0.021,0,0.031,0c2.598,0.059,7.293,0.4,9.555,2.024C60.555,38.331,61.433,39.521,62.071,41.003z"/><path fill="#472b29" d="M59.212,32.5c-0.154,0-0.308-0.072-0.405-0.207C57.982,31.153,54.692,30,50,30l-0.49,0.011 c-0.28,0.012-0.504-0.214-0.51-0.49c-0.006-0.276,0.214-0.504,0.49-0.51l0.174-0.004C49.775,29.003,49.886,29,50,29 c4.581,0,8.446,1.088,9.617,2.707c0.162,0.224,0.111,0.536-0.112,0.698C59.416,32.469,59.313,32.5,59.212,32.5z"/><path fill="#472b29" d="M40.788,32.5c-0.102,0-0.204-0.031-0.293-0.095c-0.224-0.162-0.274-0.475-0.112-0.698 c0.506-0.699,1.53-1.316,2.962-1.785c0.263-0.088,0.544,0.057,0.631,0.32c0.086,0.262-0.058,0.544-0.32,0.63 c-1.212,0.396-2.086,0.901-2.462,1.42C41.096,32.428,40.942,32.5,40.788,32.5z"/><path fill="#472b29" d="M45.499,30.396c-0.235,0-0.445-0.167-0.49-0.408c-0.051-0.271,0.128-0.533,0.398-0.583 c0.33-0.062,0.674-0.117,1.024-0.166c0.267-0.042,0.525,0.152,0.563,0.427c0.038,0.273-0.153,0.526-0.427,0.563 c-0.335,0.046-0.661,0.099-0.976,0.158C45.562,30.393,45.53,30.396,45.499,30.396z"/></g></g></g><g><path fill="#fdfcef" d="M81.5,78.5c0,0,1.567,0,3.5,0s3.5-1.567,3.5-3.5c0-1.781-1.335-3.234-3.055-3.455 C85.473,71.366,85.5,71.187,85.5,71c0-1.933-1.567-3.5-3.5-3.5c-1.032,0-1.95,0.455-2.59,1.165 c-0.384-1.808-1.987-3.165-3.91-3.165c-2.209,0-4,1.791-4,4c0,0.191,0.03,0.374,0.056,0.558C71.128,69.714,70.592,69.5,70,69.5 c-1.228,0-2.245,0.887-2.455,2.055C67.366,71.527,67.187,71.5,67,71.5c-1.933,0-3.5,1.567-3.5,3.5s1.567,3.5,3.5,3.5s7.5,0,7.5,0 V79h7V78.5z"/><path fill="#472b29" d="M83.25,74C83.112,74,83,73.888,83,73.75c0-1.223,0.995-2.218,2.218-2.218 c0.034,0.009,0.737-0.001,1.244,0.136c0.133,0.036,0.212,0.173,0.176,0.306c-0.036,0.134-0.173,0.213-0.306,0.176 c-0.444-0.12-1.1-0.12-1.113-0.118c-0.948,0-1.719,0.771-1.719,1.718C83.5,73.888,83.388,74,83.25,74z"/><circle cx="76.5" cy="78.5" r=".5" fill="#472b29"/><path fill="#472b29" d="M85,79h-3.5c-0.276,0-0.5-0.224-0.5-0.5s0.224-0.5,0.5-0.5H85c1.654,0,3-1.346,3-3 c0-1.496-1.125-2.768-2.618-2.959c-0.134-0.018-0.255-0.088-0.336-0.196s-0.115-0.244-0.094-0.377C84.975,71.314,85,71.16,85,71 c0-1.654-1.346-3-3-3c-0.85,0-1.638,0.355-2.219,1c-0.125,0.139-0.321,0.198-0.5,0.148c-0.182-0.049-0.321-0.195-0.36-0.379 C78.58,67.165,77.141,66,75.5,66c-1.93,0-3.5,1.57-3.5,3.5c0,0.143,0.021,0.28,0.041,0.418c0.029,0.203-0.063,0.438-0.242,0.54 c-0.179,0.102-0.396,0.118-0.556-0.01C70.878,70.155,70.449,70,70,70c-0.966,0-1.792,0.691-1.963,1.644 c-0.048,0.267-0.296,0.446-0.569,0.405C67.314,72.025,67.16,72,67,72c-1.654,0-3,1.346-3,3s1.346,3,3,3h7.5 c0.276,0,0.5,0.224,0.5,0.5S74.776,79,74.5,79H67c-2.206,0-4-1.794-4-4s1.794-4,4-4c0.059,0,0.116,0.002,0.174,0.006 C67.588,69.82,68.711,69,70,69c0.349,0,0.689,0.061,1.011,0.18C71.176,66.847,73.126,65,75.5,65c1.831,0,3.466,1.127,4.153,2.774 C80.333,67.276,81.155,67,82,67c2.206,0,4,1.794,4,4c0,0.048-0.001,0.095-0.004,0.142C87.739,71.59,89,73.169,89,75 C89,77.206,87.206,79,85,79z"/><path fill="#472b29" d="M79.5,78c-0.159,0-0.841,0-1,0c-0.276,0-0.5,0.224-0.5,0.5c0,0.276,0.224,0.5,0.5,0.5 c0.159,0,0.841,0,1,0c0.276,0,0.5-0.224,0.5-0.5C80,78.224,79.776,78,79.5,78z"/></g></svg>